# xmcd
#
# Track frame offsets:
# 150
# 15051
# 31837
# 46241
# 57221
# 75194
# 99240
# 128956
# 145205
# 161110
# 178600
# 210102
#
# Disc length: 3025 seconds
#
#
# Revision: 0
# Processed by: cddbd v1.5.1PL2 Copyright (c) Steve Scherf et al.
# Submitted via: FreeRIP 2.942 
#
DISCID=830bcf0c
DTITLE=Cristiano e Gabriel - Ao Vivo
DYEAR=2005
DGENRE=sertanejo
TTITLE0=Perdoa (cristiano e gabriel)
TTITLE1=Agarrada em Mim
TTITLE2=Tá no meu coração
TTITLE3=Mulher, cerveja e viola
TTITLE4=Por toda vida
TTITLE5=Blusa vermelha - Último adeus
TTITLE6=Pode ser pra valer - evidências
TTITLE7=Saudade de min (cristiano e gabriel)
TTITLE8=Você vai ver
TTITLE9=Choram as rosas
TTITLE10=Me bate, me xinga
TTITLE11=Volta pra min (Faixa Bônus)
EXTD=Cristiano e Gabriel no cosy em goiania
EXTT0=
EXTT1=
EXTT2=
EXTT3=
EXTT4=
EXTT5=
EXTT6=
EXTT7=
EXTT8=
EXTT9=
EXTT10=
EXTT11=
PLAYORDER=
